<mxfile host="app.diagrams.net" modified="2023-02-14T12:02:14.145Z" agent="5.0 (Windows NT 10.0; Win64; x64) AppleWebKit/537.36 (KHTML, like Gecko) Chrome/110.0.0.0 Safari/537.36 Edg/110.0.1587.41" etag="WcJl1_vWfYlrb5NqX6Y6" version="20.8.20" type="github">
  <diagram name="Diagrama geral" id="QMUG5JjBFI0rQVF-NiD4">
    <mxGraphModel dx="1416" dy="379" grid="1" gridSize="10" guides="1" tooltips="1" connect="1" arrows="1" fold="1" page="1" pageScale="1" pageWidth="827" pageHeight="1169" math="0" shadow="0">
      <root>
        <mxCell id="0" />
        <mxCell id="1" parent="0" />
        <mxCell id="qsASgj30MXijZk_LZ2rF-31" style="edgeStyle=orthogonalEdgeStyle;rounded=0;orthogonalLoop=1;jettySize=auto;html=1;" parent="1" source="qsASgj30MXijZk_LZ2rF-1" target="qsASgj30MXijZk_LZ2rF-2" edge="1">
          <mxGeometry relative="1" as="geometry" />
        </mxCell>
        <mxCell id="qsASgj30MXijZk_LZ2rF-1" value="erp.creditcart" style="swimlane;whiteSpace=wrap;html=1;" parent="1" vertex="1" collapsed="1">
          <mxGeometry x="652.5" y="229" width="120" height="30" as="geometry">
            <mxRectangle x="30" y="80" width="200" height="200" as="alternateBounds" />
          </mxGeometry>
        </mxCell>
        <mxCell id="qsASgj30MXijZk_LZ2rF-2" value="dim_cartaocredito" style="swimlane;whiteSpace=wrap;html=1;startSize=30;" parent="1" vertex="1">
          <mxGeometry x="591" y="329" width="210" height="70" as="geometry">
            <mxRectangle x="687" y="650" width="140" height="30" as="alternateBounds" />
          </mxGeometry>
        </mxCell>
        <mxCell id="qsASgj30MXijZk_LZ2rF-55" value="pk_cartaovendas" style="whiteSpace=wrap;html=1;" parent="qsASgj30MXijZk_LZ2rF-2" vertex="1">
          <mxGeometry y="30" width="210" height="20" as="geometry" />
        </mxCell>
        <mxCell id="qsASgj30MXijZk_LZ2rF-56" value="tipo_cartaocredito" style="whiteSpace=wrap;html=1;" parent="qsASgj30MXijZk_LZ2rF-2" vertex="1">
          <mxGeometry y="50" width="210" height="20" as="geometry" />
        </mxCell>
        <mxCell id="qsASgj30MXijZk_LZ2rF-41" style="edgeStyle=orthogonalEdgeStyle;rounded=0;orthogonalLoop=1;jettySize=auto;html=1;entryX=0;entryY=0.5;entryDx=0;entryDy=0;" parent="1" source="qsASgj30MXijZk_LZ2rF-4" target="qsASgj30MXijZk_LZ2rF-14" edge="1">
          <mxGeometry relative="1" as="geometry" />
        </mxCell>
        <mxCell id="qsASgj30MXijZk_LZ2rF-4" value="erp.salesreason" style="swimlane;whiteSpace=wrap;html=1;" parent="1" vertex="1" collapsed="1">
          <mxGeometry x="-126" y="650" width="120" height="30" as="geometry">
            <mxRectangle x="50" y="300" width="200" height="200" as="alternateBounds" />
          </mxGeometry>
        </mxCell>
        <mxCell id="qsASgj30MXijZk_LZ2rF-6" value="erp.person" style="swimlane;whiteSpace=wrap;html=1;" parent="1" vertex="1" collapsed="1">
          <mxGeometry x="904" y="400" width="100" height="30" as="geometry">
            <mxRectangle x="314" y="420" width="200" height="200" as="alternateBounds" />
          </mxGeometry>
        </mxCell>
        <mxCell id="qsASgj30MXijZk_LZ2rF-7" value="dim_clientevendas" style="swimlane;whiteSpace=wrap;html=1;startSize=20;" parent="1" vertex="1">
          <mxGeometry x="591" y="439" width="210" height="60" as="geometry">
            <mxRectangle x="650" y="310" width="140" height="30" as="alternateBounds" />
          </mxGeometry>
        </mxCell>
        <mxCell id="Th9z2LkxomeZ-2pTCL4L-2" value="pk_customer" style="whiteSpace=wrap;html=1;" vertex="1" parent="qsASgj30MXijZk_LZ2rF-7">
          <mxGeometry y="20" width="210" height="20" as="geometry" />
        </mxCell>
        <mxCell id="Th9z2LkxomeZ-2pTCL4L-3" value="nome_completo" style="whiteSpace=wrap;html=1;" vertex="1" parent="qsASgj30MXijZk_LZ2rF-7">
          <mxGeometry y="40" width="210" height="20" as="geometry" />
        </mxCell>
        <mxCell id="qsASgj30MXijZk_LZ2rF-38" style="edgeStyle=orthogonalEdgeStyle;rounded=0;orthogonalLoop=1;jettySize=auto;html=1;entryX=0;entryY=0.5;entryDx=0;entryDy=0;" parent="1" source="qsASgj30MXijZk_LZ2rF-8" target="qsASgj30MXijZk_LZ2rF-11" edge="1">
          <mxGeometry relative="1" as="geometry">
            <mxPoint x="34" y="490" as="targetPoint" />
          </mxGeometry>
        </mxCell>
        <mxCell id="qsASgj30MXijZk_LZ2rF-8" value="erp.address" style="swimlane;whiteSpace=wrap;html=1;" parent="1" vertex="1" collapsed="1">
          <mxGeometry x="-206" y="460" width="120" height="30" as="geometry">
            <mxRectangle x="50" y="300" width="200" height="200" as="alternateBounds" />
          </mxGeometry>
        </mxCell>
        <mxCell id="qsASgj30MXijZk_LZ2rF-39" style="edgeStyle=orthogonalEdgeStyle;rounded=0;orthogonalLoop=1;jettySize=auto;html=1;entryX=0.25;entryY=0;entryDx=0;entryDy=0;" parent="1" source="qsASgj30MXijZk_LZ2rF-9" target="qsASgj30MXijZk_LZ2rF-11" edge="1">
          <mxGeometry relative="1" as="geometry" />
        </mxCell>
        <mxCell id="qsASgj30MXijZk_LZ2rF-9" value="erp.stateprovince" style="swimlane;whiteSpace=wrap;html=1;startSize=23;" parent="1" vertex="1" collapsed="1">
          <mxGeometry x="-226" y="380" width="140" height="30" as="geometry">
            <mxRectangle x="50" y="300" width="200" height="200" as="alternateBounds" />
          </mxGeometry>
        </mxCell>
        <mxCell id="qsASgj30MXijZk_LZ2rF-34" style="edgeStyle=orthogonalEdgeStyle;rounded=0;orthogonalLoop=1;jettySize=auto;html=1;entryX=0.5;entryY=0;entryDx=0;entryDy=0;" parent="1" source="qsASgj30MXijZk_LZ2rF-10" target="qsASgj30MXijZk_LZ2rF-11" edge="1">
          <mxGeometry relative="1" as="geometry" />
        </mxCell>
        <mxCell id="qsASgj30MXijZk_LZ2rF-10" value="erp.countryregion" style="swimlane;whiteSpace=wrap;html=1;" parent="1" vertex="1" collapsed="1">
          <mxGeometry x="-246" y="320" width="160" height="30" as="geometry">
            <mxRectangle x="50" y="300" width="200" height="200" as="alternateBounds" />
          </mxGeometry>
        </mxCell>
        <mxCell id="qsASgj30MXijZk_LZ2rF-25" style="edgeStyle=orthogonalEdgeStyle;rounded=0;orthogonalLoop=1;jettySize=auto;html=1;entryX=0;entryY=0.5;entryDx=0;entryDy=0;" parent="1" source="qsASgj30MXijZk_LZ2rF-11" target="qsASgj30MXijZk_LZ2rF-23" edge="1">
          <mxGeometry relative="1" as="geometry" />
        </mxCell>
        <mxCell id="qsASgj30MXijZk_LZ2rF-11" value="dim_enderecovenda" style="swimlane;whiteSpace=wrap;html=1;" parent="1" vertex="1" collapsed="1">
          <mxGeometry x="84" y="420" width="170" height="30" as="geometry">
            <mxRectangle x="430" y="180" width="210" height="200" as="alternateBounds" />
          </mxGeometry>
        </mxCell>
        <mxCell id="qsASgj30MXijZk_LZ2rF-40" style="edgeStyle=orthogonalEdgeStyle;rounded=0;orthogonalLoop=1;jettySize=auto;html=1;entryX=0;entryY=0.5;entryDx=0;entryDy=0;" parent="1" source="qsASgj30MXijZk_LZ2rF-12" target="qsASgj30MXijZk_LZ2rF-13" edge="1">
          <mxGeometry relative="1" as="geometry" />
        </mxCell>
        <mxCell id="qsASgj30MXijZk_LZ2rF-12" value="erp.product" style="swimlane;whiteSpace=wrap;html=1;" parent="1" vertex="1" collapsed="1">
          <mxGeometry x="-26" y="870" width="120" height="30" as="geometry">
            <mxRectangle x="50" y="300" width="200" height="200" as="alternateBounds" />
          </mxGeometry>
        </mxCell>
        <mxCell id="qsASgj30MXijZk_LZ2rF-27" style="edgeStyle=orthogonalEdgeStyle;rounded=0;orthogonalLoop=1;jettySize=auto;html=1;entryX=0.5;entryY=1;entryDx=0;entryDy=0;" parent="1" source="qsASgj30MXijZk_LZ2rF-13" target="qsASgj30MXijZk_LZ2rF-23" edge="1">
          <mxGeometry relative="1" as="geometry" />
        </mxCell>
        <mxCell id="qsASgj30MXijZk_LZ2rF-13" value="dim_produto" style="swimlane;whiteSpace=wrap;html=1;startSize=23;" parent="1" vertex="1" collapsed="1">
          <mxGeometry x="244" y="830" width="140" height="30" as="geometry">
            <mxRectangle x="430" y="180" width="210" height="200" as="alternateBounds" />
          </mxGeometry>
        </mxCell>
        <mxCell id="qsASgj30MXijZk_LZ2rF-26" style="edgeStyle=orthogonalEdgeStyle;rounded=0;orthogonalLoop=1;jettySize=auto;html=1;entryX=0;entryY=0.5;entryDx=0;entryDy=0;" parent="1" source="qsASgj30MXijZk_LZ2rF-14" target="qsASgj30MXijZk_LZ2rF-23" edge="1">
          <mxGeometry relative="1" as="geometry" />
        </mxCell>
        <mxCell id="qsASgj30MXijZk_LZ2rF-14" value="dim_razaovenda" style="swimlane;whiteSpace=wrap;html=1;" parent="1" vertex="1" collapsed="1">
          <mxGeometry x="114" y="600" width="120" height="30" as="geometry">
            <mxRectangle x="50" y="300" width="200" height="200" as="alternateBounds" />
          </mxGeometry>
        </mxCell>
        <mxCell id="qsASgj30MXijZk_LZ2rF-15" value="erp.customer" style="swimlane;whiteSpace=wrap;html=1;" parent="1" vertex="1" collapsed="1">
          <mxGeometry x="484" y="20" width="120" height="30" as="geometry">
            <mxRectangle x="50" y="300" width="200" height="200" as="alternateBounds" />
          </mxGeometry>
        </mxCell>
        <mxCell id="qsASgj30MXijZk_LZ2rF-45" style="edgeStyle=orthogonalEdgeStyle;rounded=0;orthogonalLoop=1;jettySize=auto;html=1;entryX=1;entryY=0.5;entryDx=0;entryDy=0;" parent="1" source="qsASgj30MXijZk_LZ2rF-16" target="qsASgj30MXijZk_LZ2rF-19" edge="1">
          <mxGeometry relative="1" as="geometry" />
        </mxCell>
        <mxCell id="qsASgj30MXijZk_LZ2rF-16" value="erp.person" style="swimlane;whiteSpace=wrap;html=1;" parent="1" vertex="1" collapsed="1">
          <mxGeometry x="974" y="640" width="100" height="30" as="geometry">
            <mxRectangle x="314" y="420" width="200" height="200" as="alternateBounds" />
          </mxGeometry>
        </mxCell>
        <mxCell id="qsASgj30MXijZk_LZ2rF-44" style="edgeStyle=orthogonalEdgeStyle;rounded=0;orthogonalLoop=1;jettySize=auto;html=1;entryX=1;entryY=0.5;entryDx=0;entryDy=0;" parent="1" source="qsASgj30MXijZk_LZ2rF-17" target="qsASgj30MXijZk_LZ2rF-19" edge="1">
          <mxGeometry relative="1" as="geometry" />
        </mxCell>
        <mxCell id="qsASgj30MXijZk_LZ2rF-17" value="erp.salesperson" style="swimlane;whiteSpace=wrap;html=1;" parent="1" vertex="1" collapsed="1">
          <mxGeometry x="914" y="770" width="130" height="30" as="geometry">
            <mxRectangle x="314" y="420" width="200" height="200" as="alternateBounds" />
          </mxGeometry>
        </mxCell>
        <mxCell id="qsASgj30MXijZk_LZ2rF-46" style="edgeStyle=orthogonalEdgeStyle;rounded=0;orthogonalLoop=1;jettySize=auto;html=1;entryX=0.5;entryY=0;entryDx=0;entryDy=0;" parent="1" source="qsASgj30MXijZk_LZ2rF-18" target="qsASgj30MXijZk_LZ2rF-19" edge="1">
          <mxGeometry relative="1" as="geometry" />
        </mxCell>
        <mxCell id="qsASgj30MXijZk_LZ2rF-18" value="erp.employee" style="swimlane;whiteSpace=wrap;html=1;" parent="1" vertex="1" collapsed="1">
          <mxGeometry x="814" y="550" width="130" height="30" as="geometry">
            <mxRectangle x="314" y="420" width="200" height="200" as="alternateBounds" />
          </mxGeometry>
        </mxCell>
        <mxCell id="qsASgj30MXijZk_LZ2rF-28" style="edgeStyle=orthogonalEdgeStyle;rounded=0;orthogonalLoop=1;jettySize=auto;html=1;entryX=1;entryY=0.5;entryDx=0;entryDy=0;" parent="1" source="qsASgj30MXijZk_LZ2rF-19" target="qsASgj30MXijZk_LZ2rF-23" edge="1">
          <mxGeometry relative="1" as="geometry" />
        </mxCell>
        <mxCell id="qsASgj30MXijZk_LZ2rF-19" value="dim_vendedores" style="swimlane;whiteSpace=wrap;html=1;startSize=23;" parent="1" vertex="1" collapsed="1">
          <mxGeometry x="714" y="670" width="140" height="30" as="geometry">
            <mxRectangle x="430" y="180" width="210" height="200" as="alternateBounds" />
          </mxGeometry>
        </mxCell>
        <mxCell id="qsASgj30MXijZk_LZ2rF-52" style="edgeStyle=orthogonalEdgeStyle;rounded=0;orthogonalLoop=1;jettySize=auto;html=1;entryX=0.75;entryY=0;entryDx=0;entryDy=0;" parent="1" source="qsASgj30MXijZk_LZ2rF-20" target="qsASgj30MXijZk_LZ2rF-23" edge="1">
          <mxGeometry relative="1" as="geometry" />
        </mxCell>
        <mxCell id="qsASgj30MXijZk_LZ2rF-20" value="erp.salesorderheader" style="swimlane;whiteSpace=wrap;html=1;" parent="1" vertex="1" collapsed="1">
          <mxGeometry x="404" y="340" width="140" height="30" as="geometry">
            <mxRectangle x="430" y="180" width="210" height="200" as="alternateBounds" />
          </mxGeometry>
        </mxCell>
        <mxCell id="qsASgj30MXijZk_LZ2rF-54" style="edgeStyle=orthogonalEdgeStyle;rounded=0;orthogonalLoop=1;jettySize=auto;html=1;entryX=0.75;entryY=1;entryDx=0;entryDy=0;" parent="1" source="qsASgj30MXijZk_LZ2rF-21" target="qsASgj30MXijZk_LZ2rF-23" edge="1">
          <mxGeometry relative="1" as="geometry" />
        </mxCell>
        <mxCell id="qsASgj30MXijZk_LZ2rF-21" value="erp_salesorderdetail" style="swimlane;whiteSpace=wrap;html=1;" parent="1" vertex="1" collapsed="1">
          <mxGeometry x="494" y="810" width="170" height="30" as="geometry">
            <mxRectangle x="430" y="180" width="210" height="200" as="alternateBounds" />
          </mxGeometry>
        </mxCell>
        <mxCell id="qsASgj30MXijZk_LZ2rF-47" style="edgeStyle=orthogonalEdgeStyle;rounded=0;orthogonalLoop=1;jettySize=auto;html=1;entryX=0.112;entryY=-0.007;entryDx=0;entryDy=0;entryPerimeter=0;" parent="1" source="qsASgj30MXijZk_LZ2rF-22" target="qsASgj30MXijZk_LZ2rF-23" edge="1">
          <mxGeometry relative="1" as="geometry">
            <mxPoint x="374" y="450" as="targetPoint" />
          </mxGeometry>
        </mxCell>
        <mxCell id="qsASgj30MXijZk_LZ2rF-22" value="erp.salesoerderheadersalresreason" style="swimlane;whiteSpace=wrap;html=1;" parent="1" vertex="1" collapsed="1">
          <mxGeometry x="273" y="260" width="230" height="30" as="geometry">
            <mxRectangle x="430" y="180" width="210" height="200" as="alternateBounds" />
          </mxGeometry>
        </mxCell>
        <mxCell id="qsASgj30MXijZk_LZ2rF-23" value="fato_vendas" style="swimlane;whiteSpace=wrap;html=1;startSize=30;" parent="1" vertex="1">
          <mxGeometry x="324" y="460" width="210" height="200" as="geometry">
            <mxRectangle x="350" y="680" width="140" height="30" as="alternateBounds" />
          </mxGeometry>
        </mxCell>
        <mxCell id="qsASgj30MXijZk_LZ2rF-60" value="" style="whiteSpace=wrap;html=1;" parent="qsASgj30MXijZk_LZ2rF-23" vertex="1">
          <mxGeometry y="30" width="210" height="20" as="geometry" />
        </mxCell>
        <mxCell id="qsASgj30MXijZk_LZ2rF-62" value="fk_cartaovendas" style="whiteSpace=wrap;html=1;" parent="qsASgj30MXijZk_LZ2rF-23" vertex="1">
          <mxGeometry y="50" width="210" height="20" as="geometry" />
        </mxCell>
        <mxCell id="Th9z2LkxomeZ-2pTCL4L-4" value="fk_cartaovendas" style="whiteSpace=wrap;html=1;" vertex="1" parent="qsASgj30MXijZk_LZ2rF-23">
          <mxGeometry y="70" width="210" height="20" as="geometry" />
        </mxCell>
        <mxCell id="Th9z2LkxomeZ-2pTCL4L-7" value="fk_vendedores" style="whiteSpace=wrap;html=1;" vertex="1" parent="qsASgj30MXijZk_LZ2rF-23">
          <mxGeometry y="90" width="210" height="20" as="geometry" />
        </mxCell>
        <mxCell id="qsASgj30MXijZk_LZ2rF-63" style="edgeStyle=orthogonalEdgeStyle;rounded=0;orthogonalLoop=1;jettySize=auto;html=1;entryX=1;entryY=0.5;entryDx=0;entryDy=0;" parent="1" source="qsASgj30MXijZk_LZ2rF-55" target="qsASgj30MXijZk_LZ2rF-62" edge="1">
          <mxGeometry relative="1" as="geometry" />
        </mxCell>
        <mxCell id="Th9z2LkxomeZ-2pTCL4L-5" style="edgeStyle=orthogonalEdgeStyle;rounded=0;orthogonalLoop=1;jettySize=auto;html=1;entryX=1;entryY=0.5;entryDx=0;entryDy=0;exitX=0;exitY=0.5;exitDx=0;exitDy=0;" edge="1" parent="1" source="qsASgj30MXijZk_LZ2rF-7" target="Th9z2LkxomeZ-2pTCL4L-4">
          <mxGeometry relative="1" as="geometry">
            <Array as="points">
              <mxPoint x="591" y="460" />
              <mxPoint x="574" y="460" />
              <mxPoint x="574" y="540" />
            </Array>
          </mxGeometry>
        </mxCell>
      </root>
    </mxGraphModel>
  </diagram>
</mxfile>
